<?xml version="1.0" encoding="UTF-8"?>
<svg width="126px" height="56px" viewBox="0 0 126 56" version="1.1" xmlns="http://www.w3.org/2000/svg" xmlns:xlink="http://www.w3.org/1999/xlink">
    <title>Logo/PACE/pace-logo-orange-typeface</title>
    <g id="Logo/PACE/pace-logo-orange-typeface" stroke="none" stroke-width="1" fill="none" fill-rule="evenodd">
        <g id="PACE-Copy-30" transform="translate(11.415, 10.713)" fill="#F25C03" fill-rule="nonzero">
            <path d="M65.7346475,34.5466435 C75.9935425,34.5466435 80.3768886,27.5344696 81.4494095,22.9531826 L74.4080769,20.9430261 C73.7552382,23.3271652 71.4703024,27.160487 65.7346475,27.160487 C60.7917253,27.160487 56.2218538,23.5609043 56.2218538,17.3434435 C56.2218538,10.3780174 61.2114074,7.19916522 65.6413848,7.19916522 C71.4703024,7.19916522 73.5687128,11.0792348 74.0816576,13.3698783 L81.0297274,11.1727304 C79.9572066,6.40445217 75.5738605,0 65.6413848,0 C56.4083792,0 48.5743139,7.01217391 48.5743139,17.3434435 C48.5743139,27.674713 56.2218538,34.5466435 65.7346475,34.5466435 Z" id="Path"></path>
            <polygon id="Path" points="104.04618 33.8746435 104.04618 26.8624696 90.4298286 26.8624696 90.4298286 20.5047652 102.740503 20.5047652 102.740503 14.0068174 90.4298286 14.0068174 90.4298286 7.69586087 103.999549 7.69586087 103.999549 0.730434783 83.0620767 0.730434783 83.0620767 33.8746435"></polygon>
            <path d="M43.751856,33.8454261 L51.7724467,33.8454261 L39.4617726,0.701217391 L30.9282371,0.701217391 L18.477669,33.8454261 L26.2184716,33.8454261 L28.5966701,27.1137391 L41.3736576,27.1137391 L43.751856,33.8454261 Z M35.0784265,8.92883478 L39.0420905,20.3820522 L31.0214998,20.3820522 L35.0784265,8.92883478 Z" id="Shape"></path>
            <path d="M7.41438327,15.5962435 L7.41438327,7.13488696 L11.7044667,7.13488696 C14.5023471,7.13488696 16.4142321,8.72431304 16.4142321,11.3889391 C16.4142321,13.9600696 14.5023471,15.5962435 11.7044667,15.5962435 L7.41438327,15.5962435 Z M12.4505681,21.9539478 C19.1654813,21.9539478 23.7819841,17.6064 23.7819841,11.3421913 C23.7819841,5.17147826 19.1654813,0.730434783 12.4505681,0.730434783 L0,0.730434783 L0,33.8746435 L7.36775193,33.8746435 L7.36775193,21.9539478 L12.4505681,21.9539478 Z" id="Shape"></path>
        </g>
    </g>
</svg>