<?xml version="1.0" encoding="utf-8"?>
<svg viewBox="102.285 74.2352 90.8207 38.0026" xmlns="http://www.w3.org/2000/svg">
  <path d="M 113.74 81.031 Q 115.948 81.031 117.525 81.811 Q 119.102 82.591 119.924 84.019 Q 120.746 85.447 120.746 87.323 Q 120.746 89.199 119.924 90.602 Q 119.102 92.005 117.525 92.777 Q 115.948 93.549 113.74 93.549 L 109.839 93.549 L 109.839 98.479 L 113.823 98.479 Q 114.388 98.479 114.628 98.737 Q 114.869 98.994 114.869 99.608 Q 114.869 100.222 114.628 100.48 Q 114.388 100.737 113.823 100.737 L 104.659 100.737 Q 104.095 100.737 103.854 100.48 Q 103.613 100.222 103.613 99.608 Q 103.613 98.994 103.854 98.737 Q 104.095 98.479 104.659 98.479 L 107.348 98.479 L 107.348 83.289 L 104.659 83.289 Q 104.095 83.289 103.854 83.031 Q 103.613 82.774 103.613 82.16 Q 103.613 81.546 103.854 81.288 Q 104.095 81.031 104.659 81.031 L 113.74 81.031 Z M 109.839 91.291 L 113.391 91.291 Q 115.699 91.291 116.911 90.245 Q 118.123 89.199 118.123 87.323 Q 118.123 85.414 116.903 84.351 Q 115.682 83.289 113.391 83.289 L 109.839 83.289 Z" style="fill: rgb(51, 51, 51);"/>
  <path d="M 133.294 81.031 Q 133.958 81.031 134.365 81.288 Q 134.772 81.546 134.971 82.11 L 140.831 98.479 L 141.844 98.479 Q 142.408 98.479 142.649 98.737 Q 142.89 98.994 142.89 99.608 Q 142.89 100.222 142.649 100.48 Q 142.408 100.737 141.844 100.737 L 135.967 100.737 Q 135.403 100.737 135.162 100.48 Q 134.921 100.222 134.921 99.608 Q 134.921 98.994 135.162 98.737 Q 135.403 98.479 135.967 98.479 L 138.208 98.479 L 136.847 94.528 L 128.795 94.528 L 127.417 98.479 L 129.426 98.479 Q 129.991 98.479 130.231 98.737 Q 130.472 98.994 130.472 99.608 Q 130.472 100.222 130.231 100.48 Q 129.991 100.737 129.426 100.737 L 123.881 100.737 Q 123.317 100.737 123.076 100.48 Q 122.835 100.222 122.835 99.608 Q 122.835 98.994 123.076 98.737 Q 123.317 98.479 123.881 98.479 L 124.811 98.479 L 130.306 83.289 L 127.201 83.289 Q 126.637 83.289 126.396 83.031 Q 126.156 82.774 126.156 82.16 Q 126.156 81.546 126.396 81.288 Q 126.637 81.031 127.201 81.031 L 133.294 81.031 Z M 132.68 83.289 L 129.575 92.27 L 136.083 92.27 L 132.995 83.289 Z" style="fill: rgb(51, 51, 51);"/>
  <path d="M 159.638 80.666 Q 160.319 80.666 160.601 80.915 Q 160.884 81.164 160.884 81.745 L 160.884 87.223 Q 160.884 87.804 160.601 88.053 Q 160.319 88.302 159.638 88.302 Q 158.958 88.302 158.676 88.053 Q 158.393 87.804 158.393 87.223 Q 158.393 86.094 157.887 85.165 Q 157.381 84.235 156.335 83.679 Q 155.289 83.123 153.745 83.123 Q 151.952 83.123 150.566 84.069 Q 149.179 85.015 148.407 86.775 Q 147.635 88.535 147.635 90.892 Q 147.635 93.25 148.366 95.001 Q 149.096 96.753 150.441 97.699 Q 151.786 98.645 153.579 98.645 Q 155.222 98.645 156.717 98.164 Q 158.211 97.682 159.406 96.769 Q 159.688 96.537 160.02 96.537 Q 160.518 96.537 160.9 97.184 Q 161.199 97.682 161.199 98.064 Q 161.199 98.562 160.684 98.927 Q 159.14 100.007 157.322 100.554 Q 155.505 101.102 153.579 101.102 Q 150.989 101.102 149.055 99.832 Q 147.121 98.562 146.067 96.255 Q 145.012 93.947 145.012 90.892 Q 145.012 87.854 146.092 85.538 Q 147.171 83.222 149.121 81.944 Q 151.072 80.666 153.579 80.666 Q 155.139 80.666 156.351 81.197 Q 157.563 81.728 158.393 82.708 L 158.393 81.745 Q 158.393 81.164 158.676 80.915 Q 158.958 80.666 159.638 80.666 Z" style="fill: rgb(51, 51, 51);"/>
  <path d="M 112.381 75.859 Q 112.456 75.859 112.488 75.891 Q 112.52 75.923 112.52 75.998 L 112.52 76.647 Q 112.52 76.72 112.458 76.751 Q 112.396 76.783 112.258 76.783 Q 112.125 76.783 112.076 76.753 Q 112.026 76.722 112.026 76.647 L 112.026 76.321 L 111.167 76.321 L 111.167 76.864 L 111.691 76.864 Q 111.766 76.864 111.796 76.914 Q 111.826 76.963 111.826 77.096 Q 111.826 77.23 111.796 77.278 Q 111.766 77.326 111.691 77.326 L 111.167 77.326 L 111.167 77.947 L 112.048 77.947 L 112.048 77.513 Q 112.048 77.44 112.111 77.409 Q 112.174 77.378 112.318 77.378 Q 112.46 77.378 112.512 77.408 Q 112.563 77.438 112.563 77.513 L 112.563 78.269 Q 112.563 78.342 112.531 78.376 Q 112.499 78.409 112.424 78.409 L 110.421 78.409 Q 110.37 78.409 110.342 78.392 Q 110.314 78.375 110.3 78.327 Q 110.286 78.28 110.286 78.19 Q 110.286 78.1 110.3 78.052 Q 110.314 78.005 110.342 77.987 Q 110.37 77.969 110.421 77.969 L 110.63 77.969 L 110.63 76.299 L 110.421 76.299 Q 110.37 76.299 110.342 76.282 Q 110.314 76.265 110.3 76.218 Q 110.286 76.17 110.286 76.08 Q 110.286 75.99 110.3 75.943 Q 110.314 75.895 110.342 75.877 Q 110.37 75.859 110.421 75.859 L 112.381 75.859 Z" transform="matrix(1, 0, 0, 1, 53.954517, 4.796103)" style="fill: rgb(51, 51, 51);"/>
  <path d="M 115.121 76.424 Q 115.173 76.424 115.201 76.442 Q 115.228 76.46 115.242 76.508 Q 115.256 76.555 115.256 76.645 Q 115.256 76.735 115.242 76.783 Q 115.228 76.83 115.201 76.847 Q 115.173 76.864 115.121 76.864 L 114.994 76.864 L 114.477 77.404 L 115.033 77.969 L 115.143 77.969 Q 115.194 77.969 115.222 77.987 Q 115.25 78.005 115.264 78.052 Q 115.278 78.1 115.278 78.19 Q 115.278 78.28 115.264 78.327 Q 115.25 78.375 115.222 78.392 Q 115.194 78.409 115.143 78.409 L 114.318 78.409 Q 114.266 78.409 114.238 78.392 Q 114.21 78.375 114.196 78.327 Q 114.182 78.28 114.182 78.19 Q 114.182 78.1 114.196 78.052 Q 114.21 78.005 114.238 77.987 Q 114.266 77.969 114.318 77.969 L 114.348 77.969 L 114.066 77.681 L 113.8 77.969 L 113.836 77.969 Q 113.888 77.969 113.916 77.987 Q 113.944 78.005 113.958 78.052 Q 113.972 78.1 113.972 78.19 Q 113.972 78.28 113.958 78.327 Q 113.944 78.375 113.916 78.392 Q 113.888 78.409 113.836 78.409 L 113.076 78.409 Q 113.024 78.409 112.996 78.392 Q 112.968 78.375 112.954 78.327 Q 112.94 78.28 112.94 78.19 Q 112.94 78.1 112.954 78.052 Q 112.968 78.005 112.996 77.987 Q 113.024 77.969 113.076 77.969 L 113.192 77.969 L 113.737 77.401 L 113.209 76.864 L 113.097 76.864 Q 113.046 76.864 113.018 76.847 Q 112.99 76.83 112.976 76.783 Q 112.962 76.735 112.962 76.645 Q 112.962 76.555 112.976 76.508 Q 112.99 76.46 113.018 76.442 Q 113.046 76.424 113.097 76.424 L 113.901 76.424 Q 113.952 76.424 113.98 76.442 Q 114.008 76.46 114.022 76.508 Q 114.036 76.555 114.036 76.645 Q 114.036 76.735 114.022 76.783 Q 114.008 76.83 113.98 76.847 Q 113.952 76.864 113.901 76.864 L 113.873 76.864 L 114.148 77.146 L 114.408 76.864 L 114.361 76.864 Q 114.309 76.864 114.281 76.847 Q 114.253 76.83 114.239 76.783 Q 114.225 76.735 114.225 76.645 Q 114.225 76.555 114.239 76.508 Q 114.253 76.46 114.281 76.442 Q 114.309 76.424 114.361 76.424 L 115.121 76.424 Z" transform="matrix(1, 0, 0, 1, 53.954517, 4.796103)" style="fill: rgb(51, 51, 51);"/>
  <path d="M 116.772 76.377 Q 117.099 76.377 117.329 76.517 Q 117.559 76.658 117.676 76.908 Q 117.793 77.159 117.793 77.481 Q 117.793 77.554 117.762 77.584 Q 117.73 77.614 117.657 77.614 L 116.278 77.614 Q 116.319 77.786 116.453 77.877 Q 116.587 77.969 116.794 77.969 Q 117.127 77.969 117.516 77.85 Q 117.541 77.842 117.567 77.842 Q 117.614 77.842 117.649 77.885 Q 117.683 77.928 117.711 78.031 Q 117.733 78.11 117.733 78.166 Q 117.733 78.222 117.708 78.253 Q 117.683 78.284 117.627 78.304 Q 117.412 78.375 117.189 78.415 Q 116.966 78.456 116.751 78.456 Q 116.424 78.456 116.188 78.323 Q 115.952 78.19 115.828 77.955 Q 115.704 77.719 115.704 77.416 Q 115.704 77.116 115.833 76.879 Q 115.962 76.643 116.205 76.51 Q 116.448 76.377 116.772 76.377 Z M 116.772 76.864 Q 116.379 76.864 116.287 77.195 L 117.232 77.195 Q 117.195 77.038 117.076 76.951 Q 116.957 76.864 116.772 76.864 Z" transform="matrix(1, 0, 0, 1, 53.954517, 4.796103)" style="fill: rgb(51, 51, 51);"/>
  <path d="M 120.108 76.377 Q 120.241 76.377 120.29 76.407 Q 120.34 76.437 120.34 76.512 L 120.34 77.202 Q 120.34 77.275 120.274 77.306 Q 120.209 77.337 120.056 77.337 Q 119.955 77.337 119.9 77.323 Q 119.846 77.309 119.824 77.281 Q 119.803 77.253 119.803 77.202 Q 119.803 77.111 119.759 77.034 Q 119.715 76.957 119.628 76.91 Q 119.541 76.864 119.418 76.864 Q 119.263 76.864 119.147 76.932 Q 119.031 77 118.968 77.125 Q 118.905 77.251 118.905 77.416 Q 118.905 77.582 118.968 77.708 Q 119.031 77.833 119.147 77.901 Q 119.263 77.969 119.418 77.969 Q 119.584 77.969 119.756 77.915 Q 119.929 77.861 120.093 77.767 Q 120.131 77.745 120.164 77.745 Q 120.26 77.745 120.333 77.915 Q 120.372 78.007 120.372 78.072 Q 120.372 78.168 120.28 78.22 Q 120.08 78.332 119.86 78.394 Q 119.639 78.456 119.418 78.456 Q 119.092 78.456 118.844 78.323 Q 118.597 78.19 118.463 77.954 Q 118.329 77.717 118.329 77.416 Q 118.329 77.116 118.464 76.878 Q 118.6 76.641 118.833 76.509 Q 119.066 76.377 119.354 76.377 Q 119.702 76.377 119.846 76.628 L 119.846 76.512 Q 119.846 76.439 119.908 76.408 Q 119.97 76.377 120.108 76.377 Z" transform="matrix(1, 0, 0, 1, 53.954517, 4.796103)" style="fill: rgb(51, 51, 51);"/>
  <path d="M 122.779 76.424 Q 122.852 76.424 122.883 76.455 Q 122.914 76.486 122.914 76.559 L 122.914 77.969 L 123.079 77.969 Q 123.131 77.969 123.159 77.986 Q 123.187 78.003 123.201 78.05 Q 123.215 78.097 123.215 78.188 Q 123.215 78.278 123.201 78.325 Q 123.187 78.372 123.159 78.391 Q 123.131 78.409 123.079 78.409 L 122.598 78.409 Q 122.525 78.409 122.494 78.378 Q 122.463 78.347 122.463 78.274 L 122.463 77.962 Q 122.179 78.456 121.754 78.456 Q 121.558 78.456 121.411 78.37 Q 121.264 78.284 121.184 78.126 Q 121.105 77.969 121.105 77.756 L 121.105 76.864 L 120.94 76.864 Q 120.888 76.864 120.86 76.846 Q 120.832 76.828 120.818 76.78 Q 120.804 76.733 120.804 76.643 Q 120.804 76.553 120.818 76.505 Q 120.832 76.458 120.86 76.441 Q 120.888 76.424 120.94 76.424 L 121.507 76.424 Q 121.58 76.424 121.611 76.455 Q 121.642 76.486 121.642 76.559 L 121.642 77.629 Q 121.642 77.797 121.7 77.883 Q 121.758 77.969 121.893 77.969 Q 122.018 77.969 122.13 77.864 Q 122.242 77.76 122.309 77.586 Q 122.377 77.412 122.377 77.214 L 122.377 76.864 L 122.147 76.864 Q 122.095 76.864 122.067 76.846 Q 122.04 76.828 122.026 76.78 Q 122.012 76.733 122.012 76.643 Q 122.012 76.553 122.026 76.505 Q 122.04 76.458 122.067 76.441 Q 122.095 76.424 122.147 76.424 L 122.779 76.424 Z" transform="matrix(1, 0, 0, 1, 53.954517, 4.796103)" style="fill: rgb(51, 51, 51);"/>
  <path d="M 124.372 75.812 Q 124.473 75.812 124.528 75.826 Q 124.582 75.839 124.604 75.867 Q 124.625 75.895 124.625 75.947 L 124.625 76.553 L 125.422 76.553 Q 125.498 76.553 125.528 76.602 Q 125.558 76.652 125.558 76.785 Q 125.558 76.918 125.528 76.966 Q 125.498 77.015 125.422 77.015 L 124.625 77.015 L 124.625 77.612 Q 124.625 77.969 124.902 77.969 Q 125.001 77.969 125.133 77.925 Q 125.266 77.88 125.442 77.801 Q 125.489 77.782 125.517 77.782 Q 125.562 77.782 125.601 77.819 Q 125.639 77.857 125.674 77.943 Q 125.712 78.039 125.712 78.1 Q 125.712 78.147 125.69 78.178 Q 125.667 78.209 125.622 78.233 Q 125.18 78.456 124.855 78.456 Q 124.481 78.456 124.285 78.248 Q 124.088 78.039 124.088 77.64 L 124.088 77.015 L 123.674 77.015 Q 123.598 77.015 123.568 76.966 Q 123.538 76.918 123.538 76.785 Q 123.538 76.652 123.568 76.602 Q 123.598 76.553 123.674 76.553 L 124.088 76.553 L 124.088 75.947 Q 124.088 75.874 124.154 75.843 Q 124.219 75.812 124.372 75.812 Z" transform="matrix(1, 0, 0, 1, 53.954517, 4.796103)" style="fill: rgb(51, 51, 51);"/>
  <path d="M 127.445 76.424 Q 127.518 76.424 127.549 76.455 Q 127.581 76.486 127.581 76.559 L 127.581 77.969 L 128.184 77.969 Q 128.236 77.969 128.264 77.987 Q 128.292 78.005 128.306 78.052 Q 128.32 78.1 128.32 78.19 Q 128.32 78.28 128.306 78.327 Q 128.292 78.375 128.264 78.392 Q 128.236 78.409 128.184 78.409 L 126.457 78.409 Q 126.405 78.409 126.377 78.392 Q 126.349 78.375 126.336 78.327 Q 126.322 78.28 126.322 78.19 Q 126.322 78.1 126.336 78.052 Q 126.349 78.005 126.377 77.987 Q 126.405 77.969 126.457 77.969 L 127.043 77.969 L 127.043 76.864 L 126.586 76.864 Q 126.534 76.864 126.506 76.847 Q 126.478 76.83 126.464 76.783 Q 126.45 76.735 126.45 76.645 Q 126.45 76.555 126.464 76.508 Q 126.478 76.46 126.506 76.442 Q 126.534 76.424 126.586 76.424 L 127.445 76.424 Z M 127.306 75.481 Q 127.458 75.481 127.519 75.512 Q 127.581 75.543 127.581 75.616 L 127.581 75.968 Q 127.581 76.041 127.524 76.073 Q 127.467 76.104 127.316 76.104 Q 127.166 76.104 127.105 76.073 Q 127.043 76.041 127.043 75.968 L 127.043 75.616 Q 127.043 75.541 127.099 75.511 Q 127.155 75.481 127.306 75.481 Z" transform="matrix(1, 0, 0, 1, 53.954517, 4.796103)" style="fill: rgb(51, 51, 51);"/>
  <path d="M 129.923 76.377 Q 130.249 76.377 130.494 76.51 Q 130.739 76.643 130.871 76.879 Q 131.003 77.116 131.003 77.416 Q 131.003 77.717 130.871 77.954 Q 130.739 78.19 130.494 78.323 Q 130.249 78.456 129.923 78.456 Q 129.596 78.456 129.351 78.323 Q 129.106 78.19 128.974 77.954 Q 128.842 77.717 128.842 77.416 Q 128.842 77.116 128.974 76.879 Q 129.106 76.643 129.351 76.51 Q 129.596 76.377 129.923 76.377 Z M 129.923 76.864 Q 129.768 76.864 129.654 76.932 Q 129.54 77 129.479 77.124 Q 129.418 77.249 129.418 77.416 Q 129.418 77.584 129.479 77.709 Q 129.54 77.833 129.654 77.901 Q 129.768 77.969 129.923 77.969 Q 130.077 77.969 130.191 77.901 Q 130.305 77.833 130.366 77.709 Q 130.428 77.584 130.428 77.416 Q 130.428 77.249 130.366 77.124 Q 130.305 77 130.191 76.932 Q 130.077 76.864 129.923 76.864 Z" transform="matrix(1, 0, 0, 1, 53.954517, 4.796103)" style="fill: rgb(51, 51, 51);"/>
  <path d="M 132.863 76.377 Q 133.058 76.377 133.206 76.463 Q 133.353 76.548 133.432 76.706 Q 133.512 76.864 133.512 77.077 L 133.512 77.969 L 133.677 77.969 Q 133.729 77.969 133.757 77.987 Q 133.785 78.005 133.799 78.052 Q 133.813 78.1 133.813 78.19 Q 133.813 78.28 133.799 78.327 Q 133.785 78.375 133.757 78.392 Q 133.729 78.409 133.677 78.409 L 132.874 78.409 Q 132.822 78.409 132.794 78.392 Q 132.766 78.375 132.752 78.327 Q 132.738 78.28 132.738 78.19 Q 132.738 78.1 132.752 78.052 Q 132.766 78.005 132.794 77.987 Q 132.822 77.969 132.874 77.969 L 132.975 77.969 L 132.975 77.204 Q 132.975 77.036 132.917 76.95 Q 132.859 76.864 132.723 76.864 Q 132.599 76.864 132.487 76.968 Q 132.375 77.073 132.308 77.247 Q 132.24 77.421 132.24 77.618 L 132.24 77.969 L 132.341 77.969 Q 132.392 77.969 132.42 77.987 Q 132.448 78.005 132.462 78.052 Q 132.476 78.1 132.476 78.19 Q 132.476 78.28 132.462 78.327 Q 132.448 78.375 132.42 78.392 Q 132.392 78.409 132.341 78.409 L 131.537 78.409 Q 131.486 78.409 131.458 78.392 Q 131.43 78.375 131.416 78.327 Q 131.402 78.28 131.402 78.19 Q 131.402 78.1 131.416 78.052 Q 131.43 78.005 131.458 77.987 Q 131.486 77.969 131.537 77.969 L 131.703 77.969 L 131.703 76.864 L 131.494 76.864 Q 131.443 76.864 131.415 76.847 Q 131.387 76.83 131.373 76.783 Q 131.359 76.735 131.359 76.645 Q 131.359 76.555 131.373 76.508 Q 131.387 76.46 131.415 76.442 Q 131.443 76.424 131.494 76.424 L 132.019 76.424 Q 132.092 76.424 132.123 76.455 Q 132.154 76.486 132.154 76.559 L 132.154 76.871 Q 132.438 76.377 132.863 76.377 Z" transform="matrix(1, 0, 0, 1, 53.954517, 4.796103)" style="fill: rgb(51, 51, 51);"/>
  <path d="M 111.491 79.814 Q 111.629 79.814 111.687 79.845 Q 111.745 79.876 111.745 79.949 L 111.745 83.436 Q 111.745 83.507 111.674 83.539 Q 111.603 83.572 111.461 83.572 Q 111.324 83.572 111.266 83.541 Q 111.208 83.509 111.208 83.436 L 111.208 79.949 Q 111.208 79.879 111.278 79.846 Q 111.349 79.814 111.491 79.814 Z" transform="matrix(1, 0, 0, 1, 53.954517, 4.796103)" style="fill: rgb(51, 51, 51);"/>
  <path d="M 112.381 84.659 Q 112.456 84.659 112.488 84.691 Q 112.52 84.723 112.52 84.798 L 112.52 85.447 Q 112.52 85.52 112.458 85.551 Q 112.396 85.583 112.258 85.583 Q 112.125 85.583 112.076 85.553 Q 112.026 85.522 112.026 85.447 L 112.026 85.121 L 111.167 85.121 L 111.167 85.664 L 111.691 85.664 Q 111.766 85.664 111.796 85.714 Q 111.826 85.763 111.826 85.896 Q 111.826 86.03 111.796 86.078 Q 111.766 86.126 111.691 86.126 L 111.167 86.126 L 111.167 86.747 L 112.048 86.747 L 112.048 86.313 Q 112.048 86.24 112.111 86.209 Q 112.174 86.178 112.318 86.178 Q 112.46 86.178 112.512 86.208 Q 112.563 86.238 112.563 86.313 L 112.563 87.069 Q 112.563 87.142 112.531 87.176 Q 112.499 87.209 112.424 87.209 L 110.421 87.209 Q 110.37 87.209 110.342 87.192 Q 110.314 87.175 110.3 87.127 Q 110.286 87.08 110.286 86.99 Q 110.286 86.9 110.3 86.852 Q 110.314 86.805 110.342 86.787 Q 110.37 86.769 110.421 86.769 L 110.63 86.769 L 110.63 85.099 L 110.421 85.099 Q 110.37 85.099 110.342 85.082 Q 110.314 85.065 110.3 85.018 Q 110.286 84.97 110.286 84.88 Q 110.286 84.79 110.3 84.743 Q 110.314 84.695 110.342 84.677 Q 110.37 84.659 110.421 84.659 L 112.381 84.659 Z" transform="matrix(1, 0, 0, 1, 53.954517, 4.796103)" style="fill: rgb(51, 51, 51);"/>
  <path d="M 114.416 85.177 Q 114.612 85.177 114.759 85.263 Q 114.906 85.348 114.986 85.506 Q 115.065 85.664 115.065 85.877 L 115.065 86.769 L 115.231 86.769 Q 115.282 86.769 115.31 86.787 Q 115.338 86.805 115.352 86.852 Q 115.366 86.9 115.366 86.99 Q 115.366 87.08 115.352 87.127 Q 115.338 87.175 115.31 87.192 Q 115.282 87.209 115.231 87.209 L 114.427 87.209 Q 114.376 87.209 114.348 87.192 Q 114.32 87.175 114.306 87.127 Q 114.292 87.08 114.292 86.99 Q 114.292 86.9 114.306 86.852 Q 114.32 86.805 114.348 86.787 Q 114.376 86.769 114.427 86.769 L 114.528 86.769 L 114.528 86.004 Q 114.528 85.836 114.47 85.75 Q 114.412 85.664 114.277 85.664 Q 114.152 85.664 114.04 85.768 Q 113.929 85.873 113.861 86.047 Q 113.793 86.221 113.793 86.418 L 113.793 86.769 L 113.894 86.769 Q 113.946 86.769 113.974 86.787 Q 114.002 86.805 114.016 86.852 Q 114.03 86.9 114.03 86.99 Q 114.03 87.08 114.016 87.127 Q 114.002 87.175 113.974 87.192 Q 113.946 87.209 113.894 87.209 L 113.091 87.209 Q 113.039 87.209 113.011 87.192 Q 112.983 87.175 112.969 87.127 Q 112.955 87.08 112.955 86.99 Q 112.955 86.9 112.969 86.852 Q 112.983 86.805 113.011 86.787 Q 113.039 86.769 113.091 86.769 L 113.256 86.769 L 113.256 85.664 L 113.048 85.664 Q 112.996 85.664 112.968 85.647 Q 112.94 85.63 112.926 85.583 Q 112.912 85.535 112.912 85.445 Q 112.912 85.355 112.926 85.308 Q 112.94 85.26 112.968 85.242 Q 112.996 85.224 113.048 85.224 L 113.572 85.224 Q 113.645 85.224 113.676 85.255 Q 113.707 85.286 113.707 85.359 L 113.707 85.671 Q 113.991 85.177 114.416 85.177 Z" transform="matrix(1, 0, 0, 1, 53.954517, 4.796103)" style="fill: rgb(51, 51, 51);"/>
  <path d="M 116.557 85.177 Q 116.761 85.177 116.929 85.263 Q 117.097 85.348 117.208 85.51 L 117.208 85.359 Q 117.208 85.286 117.239 85.255 Q 117.271 85.224 117.344 85.224 L 117.846 85.224 Q 117.898 85.224 117.926 85.242 Q 117.954 85.26 117.968 85.308 Q 117.982 85.355 117.982 85.445 Q 117.982 85.535 117.968 85.583 Q 117.954 85.63 117.926 85.647 Q 117.898 85.664 117.846 85.664 L 117.66 85.664 L 117.66 87.207 Q 117.66 87.628 117.407 87.859 Q 117.155 88.09 116.652 88.09 Q 116.467 88.09 116.248 88.054 Q 116.029 88.019 115.829 87.957 Q 115.726 87.924 115.726 87.808 Q 115.726 87.757 115.754 87.658 Q 115.786 87.557 115.826 87.512 Q 115.866 87.467 115.919 87.467 Q 115.947 87.467 115.971 87.475 Q 116.381 87.602 116.63 87.602 Q 116.89 87.602 117.006 87.494 Q 117.122 87.385 117.122 87.164 L 117.122 86.945 Q 117.013 87.063 116.869 87.127 Q 116.725 87.192 116.557 87.192 Q 116.28 87.192 116.07 87.062 Q 115.859 86.932 115.745 86.703 Q 115.631 86.474 115.631 86.184 Q 115.631 85.894 115.745 85.665 Q 115.859 85.437 116.07 85.307 Q 116.28 85.177 116.557 85.177 Z M 116.643 85.664 Q 116.443 85.664 116.325 85.801 Q 116.207 85.937 116.207 86.184 Q 116.207 86.431 116.325 86.568 Q 116.443 86.704 116.643 86.704 Q 116.781 86.704 116.894 86.645 Q 117.006 86.586 117.072 86.469 Q 117.137 86.352 117.137 86.184 Q 117.137 86.017 117.072 85.9 Q 117.006 85.782 116.894 85.723 Q 116.781 85.664 116.643 85.664 Z" transform="matrix(1, 0, 0, 1, 53.954517, 4.796103)" style="fill: rgb(51, 51, 51);"/>
  <path d="M 119.538 85.224 Q 119.611 85.224 119.643 85.255 Q 119.674 85.286 119.674 85.359 L 119.674 86.769 L 120.277 86.769 Q 120.329 86.769 120.357 86.787 Q 120.385 86.805 120.399 86.852 Q 120.413 86.9 120.413 86.99 Q 120.413 87.08 120.399 87.127 Q 120.385 87.175 120.357 87.192 Q 120.329 87.209 120.277 87.209 L 118.55 87.209 Q 118.499 87.209 118.471 87.192 Q 118.443 87.175 118.429 87.127 Q 118.415 87.08 118.415 86.99 Q 118.415 86.9 118.429 86.852 Q 118.443 86.805 118.471 86.787 Q 118.499 86.769 118.55 86.769 L 119.137 86.769 L 119.137 85.664 L 118.679 85.664 Q 118.627 85.664 118.6 85.647 Q 118.572 85.63 118.558 85.583 Q 118.544 85.535 118.544 85.445 Q 118.544 85.355 118.558 85.308 Q 118.572 85.26 118.6 85.242 Q 118.627 85.224 118.679 85.224 L 119.538 85.224 Z M 119.399 84.281 Q 119.551 84.281 119.613 84.312 Q 119.674 84.343 119.674 84.416 L 119.674 84.768 Q 119.674 84.841 119.617 84.873 Q 119.56 84.904 119.41 84.904 Q 119.259 84.904 119.198 84.873 Q 119.137 84.841 119.137 84.768 L 119.137 84.416 Q 119.137 84.341 119.193 84.311 Q 119.248 84.281 119.399 84.281 Z" transform="matrix(1, 0, 0, 1, 53.954517, 4.796103)" style="fill: rgb(51, 51, 51);"/>
  <path d="M 122.323 85.177 Q 122.519 85.177 122.666 85.263 Q 122.813 85.348 122.892 85.506 Q 122.972 85.664 122.972 85.877 L 122.972 86.769 L 123.137 86.769 Q 123.189 86.769 123.217 86.787 Q 123.245 86.805 123.259 86.852 Q 123.273 86.9 123.273 86.99 Q 123.273 87.08 123.259 87.127 Q 123.245 87.175 123.217 87.192 Q 123.189 87.209 123.137 87.209 L 122.334 87.209 Q 122.282 87.209 122.254 87.192 Q 122.226 87.175 122.213 87.127 Q 122.199 87.08 122.199 86.99 Q 122.199 86.9 122.213 86.852 Q 122.226 86.805 122.254 86.787 Q 122.282 86.769 122.334 86.769 L 122.435 86.769 L 122.435 86.004 Q 122.435 85.836 122.377 85.75 Q 122.319 85.664 122.184 85.664 Q 122.059 85.664 121.947 85.768 Q 121.835 85.873 121.768 86.047 Q 121.7 86.221 121.7 86.418 L 121.7 86.769 L 121.801 86.769 Q 121.853 86.769 121.881 86.787 Q 121.909 86.805 121.922 86.852 Q 121.936 86.9 121.936 86.99 Q 121.936 87.08 121.922 87.127 Q 121.909 87.175 121.881 87.192 Q 121.853 87.209 121.801 87.209 L 120.998 87.209 Q 120.946 87.209 120.918 87.192 Q 120.89 87.175 120.876 87.127 Q 120.862 87.08 120.862 86.99 Q 120.862 86.9 120.876 86.852 Q 120.89 86.805 120.918 86.787 Q 120.946 86.769 120.998 86.769 L 121.163 86.769 L 121.163 85.664 L 120.955 85.664 Q 120.903 85.664 120.875 85.647 Q 120.847 85.63 120.833 85.583 Q 120.819 85.535 120.819 85.445 Q 120.819 85.355 120.833 85.308 Q 120.847 85.26 120.875 85.242 Q 120.903 85.224 120.955 85.224 L 121.479 85.224 Q 121.552 85.224 121.583 85.255 Q 121.614 85.286 121.614 85.359 L 121.614 85.671 Q 121.898 85.177 122.323 85.177 Z" transform="matrix(1, 0, 0, 1, 53.954517, 4.796103)" style="fill: rgb(51, 51, 51);"/>
  <path d="M 124.679 85.177 Q 125.006 85.177 125.235 85.317 Q 125.465 85.458 125.582 85.708 Q 125.7 85.959 125.7 86.281 Q 125.7 86.354 125.668 86.384 Q 125.637 86.414 125.564 86.414 L 124.185 86.414 Q 124.226 86.586 124.36 86.677 Q 124.494 86.769 124.7 86.769 Q 125.033 86.769 125.422 86.65 Q 125.448 86.642 125.474 86.642 Q 125.521 86.642 125.556 86.685 Q 125.59 86.728 125.618 86.831 Q 125.639 86.91 125.639 86.966 Q 125.639 87.022 125.615 87.053 Q 125.59 87.084 125.534 87.104 Q 125.319 87.175 125.096 87.215 Q 124.872 87.256 124.658 87.256 Q 124.331 87.256 124.095 87.123 Q 123.858 86.99 123.735 86.755 Q 123.611 86.519 123.611 86.216 Q 123.611 85.916 123.74 85.679 Q 123.869 85.443 124.112 85.31 Q 124.355 85.177 124.679 85.177 Z M 124.679 85.664 Q 124.286 85.664 124.193 85.995 L 125.139 85.995 Q 125.102 85.838 124.983 85.751 Q 124.864 85.664 124.679 85.664 Z" transform="matrix(1, 0, 0, 1, 53.954517, 4.796103)" style="fill: rgb(51, 51, 51);"/>
  <path d="M 111.491 88.614 Q 111.629 88.614 111.687 88.645 Q 111.745 88.676 111.745 88.749 L 111.745 92.236 Q 111.745 92.307 111.674 92.339 Q 111.603 92.372 111.461 92.372 Q 111.324 92.372 111.266 92.341 Q 111.208 92.309 111.208 92.236 L 111.208 88.749 Q 111.208 88.679 111.278 88.646 Q 111.349 88.614 111.491 88.614 Z" transform="matrix(1, 0, 0, 1, 53.954517, 4.796103)" style="fill: rgb(51, 51, 51);"/>
  <path d="M 112.381 93.459 Q 112.456 93.459 112.488 93.491 Q 112.52 93.523 112.52 93.598 L 112.52 94.247 Q 112.52 94.32 112.458 94.351 Q 112.396 94.383 112.258 94.383 Q 112.125 94.383 112.076 94.353 Q 112.026 94.322 112.026 94.247 L 112.026 93.921 L 111.167 93.921 L 111.167 94.464 L 111.691 94.464 Q 111.766 94.464 111.796 94.514 Q 111.826 94.563 111.826 94.696 Q 111.826 94.83 111.796 94.878 Q 111.766 94.926 111.691 94.926 L 111.167 94.926 L 111.167 95.547 L 112.048 95.547 L 112.048 95.113 Q 112.048 95.04 112.111 95.009 Q 112.174 94.978 112.318 94.978 Q 112.46 94.978 112.512 95.008 Q 112.563 95.038 112.563 95.113 L 112.563 95.869 Q 112.563 95.942 112.531 95.976 Q 112.499 96.009 112.424 96.009 L 110.421 96.009 Q 110.37 96.009 110.342 95.992 Q 110.314 95.975 110.3 95.927 Q 110.286 95.88 110.286 95.79 Q 110.286 95.7 110.3 95.652 Q 110.314 95.605 110.342 95.587 Q 110.37 95.569 110.421 95.569 L 110.63 95.569 L 110.63 93.899 L 110.421 93.899 Q 110.37 93.899 110.342 93.882 Q 110.314 93.865 110.3 93.818 Q 110.286 93.77 110.286 93.68 Q 110.286 93.59 110.3 93.543 Q 110.314 93.495 110.342 93.477 Q 110.37 93.459 110.421 93.459 L 112.381 93.459 Z" transform="matrix(1, 0, 0, 1, 53.954517, 4.796103)" style="fill: rgb(51, 51, 51);"/>
  <path d="M 114.416 93.977 Q 114.612 93.977 114.759 94.063 Q 114.906 94.148 114.986 94.306 Q 115.065 94.464 115.065 94.677 L 115.065 95.569 L 115.231 95.569 Q 115.282 95.569 115.31 95.587 Q 115.338 95.605 115.352 95.652 Q 115.366 95.7 115.366 95.79 Q 115.366 95.88 115.352 95.927 Q 115.338 95.975 115.31 95.992 Q 115.282 96.009 115.231 96.009 L 114.427 96.009 Q 114.376 96.009 114.348 95.992 Q 114.32 95.975 114.306 95.927 Q 114.292 95.88 114.292 95.79 Q 114.292 95.7 114.306 95.652 Q 114.32 95.605 114.348 95.587 Q 114.376 95.569 114.427 95.569 L 114.528 95.569 L 114.528 94.804 Q 114.528 94.636 114.47 94.55 Q 114.412 94.464 114.277 94.464 Q 114.152 94.464 114.04 94.568 Q 113.929 94.673 113.861 94.847 Q 113.793 95.021 113.793 95.218 L 113.793 95.569 L 113.894 95.569 Q 113.946 95.569 113.974 95.587 Q 114.002 95.605 114.016 95.652 Q 114.03 95.7 114.03 95.79 Q 114.03 95.88 114.016 95.927 Q 114.002 95.975 113.974 95.992 Q 113.946 96.009 113.894 96.009 L 113.091 96.009 Q 113.039 96.009 113.011 95.992 Q 112.983 95.975 112.969 95.927 Q 112.955 95.88 112.955 95.79 Q 112.955 95.7 112.969 95.652 Q 112.983 95.605 113.011 95.587 Q 113.039 95.569 113.091 95.569 L 113.256 95.569 L 113.256 94.464 L 113.048 94.464 Q 112.996 94.464 112.968 94.447 Q 112.94 94.43 112.926 94.383 Q 112.912 94.335 112.912 94.245 Q 112.912 94.155 112.926 94.108 Q 112.94 94.06 112.968 94.042 Q 112.996 94.024 113.048 94.024 L 113.572 94.024 Q 113.645 94.024 113.676 94.055 Q 113.707 94.086 113.707 94.159 L 113.707 94.471 Q 113.991 93.977 114.416 93.977 Z" transform="matrix(1, 0, 0, 1, 53.954517, 4.796103)" style="fill: rgb(51, 51, 51);"/>
  <path d="M 117.077 93.18 Q 117.404 93.18 117.73 93.302 Q 117.784 93.321 117.811 93.357 Q 117.838 93.392 117.838 93.452 Q 117.838 93.508 117.816 93.586 Q 117.791 93.68 117.753 93.721 Q 117.715 93.762 117.664 93.762 Q 117.638 93.762 117.602 93.751 Q 117.329 93.667 117.125 93.667 Q 116.847 93.667 116.847 94.024 L 116.847 94.153 L 117.516 94.153 Q 117.591 94.153 117.621 94.202 Q 117.651 94.252 117.651 94.385 Q 117.651 94.518 117.621 94.566 Q 117.591 94.615 117.516 94.615 L 116.847 94.615 L 116.847 95.569 L 117.451 95.569 Q 117.503 95.569 117.531 95.587 Q 117.559 95.605 117.573 95.652 Q 117.586 95.7 117.586 95.79 Q 117.586 95.88 117.573 95.927 Q 117.559 95.975 117.531 95.992 Q 117.503 96.009 117.451 96.009 L 115.917 96.009 Q 115.866 96.009 115.838 95.992 Q 115.81 95.975 115.796 95.927 Q 115.782 95.88 115.782 95.79 Q 115.782 95.7 115.796 95.652 Q 115.81 95.605 115.838 95.587 Q 115.866 95.569 115.917 95.569 L 116.31 95.569 L 116.31 94.615 L 115.917 94.615 Q 115.842 94.615 115.812 94.566 Q 115.782 94.518 115.782 94.385 Q 115.782 94.252 115.812 94.202 Q 115.842 94.153 115.917 94.153 L 116.31 94.153 L 116.31 93.996 Q 116.31 93.596 116.507 93.388 Q 116.703 93.18 117.077 93.18 Z" transform="matrix(1, 0, 0, 1, 53.954517, 4.796103)" style="fill: rgb(51, 51, 51);"/>
  <path d="M 119.375 93.977 Q 119.702 93.977 119.947 94.11 Q 120.192 94.243 120.324 94.479 Q 120.456 94.716 120.456 95.016 Q 120.456 95.317 120.324 95.554 Q 120.192 95.79 119.947 95.923 Q 119.702 96.056 119.375 96.056 Q 119.049 96.056 118.804 95.923 Q 118.559 95.79 118.427 95.554 Q 118.294 95.317 118.294 95.016 Q 118.294 94.716 118.427 94.479 Q 118.559 94.243 118.804 94.11 Q 119.049 93.977 119.375 93.977 Z M 119.375 94.464 Q 119.22 94.464 119.107 94.532 Q 118.993 94.6 118.931 94.724 Q 118.87 94.849 118.87 95.016 Q 118.87 95.184 118.931 95.309 Q 118.993 95.433 119.107 95.501 Q 119.22 95.569 119.375 95.569 Q 119.53 95.569 119.644 95.501 Q 119.758 95.433 119.819 95.309 Q 119.88 95.184 119.88 95.016 Q 119.88 94.849 119.819 94.724 Q 119.758 94.6 119.644 94.532 Q 119.53 94.464 119.375 94.464 Z" transform="matrix(1, 0, 0, 1, 53.954517, 4.796103)" style="fill: rgb(51, 51, 51);"/>
  <path d="M 122.688 93.977 Q 122.871 93.977 123.032 94.097 Q 123.127 94.166 123.127 94.277 Q 123.127 94.348 123.088 94.445 Q 123.049 94.542 123.001 94.591 Q 122.953 94.64 122.899 94.64 Q 122.869 94.64 122.834 94.623 Q 122.714 94.557 122.585 94.557 Q 122.42 94.557 122.276 94.662 Q 122.132 94.767 122.045 94.952 Q 121.958 95.137 121.958 95.364 L 121.958 95.569 L 122.575 95.569 Q 122.626 95.569 122.654 95.587 Q 122.682 95.605 122.696 95.652 Q 122.71 95.7 122.71 95.79 Q 122.71 95.88 122.696 95.927 Q 122.682 95.975 122.654 95.992 Q 122.626 96.009 122.575 96.009 L 121.105 96.009 Q 121.053 96.009 121.025 95.992 Q 120.998 95.975 120.984 95.927 Q 120.97 95.88 120.97 95.79 Q 120.97 95.7 120.984 95.652 Q 120.998 95.605 121.025 95.587 Q 121.053 95.569 121.105 95.569 L 121.421 95.569 L 121.421 94.464 L 121.169 94.464 Q 121.118 94.464 121.09 94.447 Q 121.062 94.43 121.048 94.383 Q 121.034 94.335 121.034 94.245 Q 121.034 94.155 121.048 94.108 Q 121.062 94.06 121.09 94.042 Q 121.118 94.024 121.169 94.024 L 121.758 94.024 Q 121.831 94.024 121.862 94.055 Q 121.893 94.086 121.893 94.159 L 121.893 94.625 Q 122.055 94.314 122.264 94.145 Q 122.474 93.977 122.688 93.977 Z" transform="matrix(1, 0, 0, 1, 53.954517, 4.796103)" style="fill: rgb(51, 51, 51);"/>
  <path d="M 125.382 93.977 Q 125.515 93.977 125.564 94.007 Q 125.614 94.037 125.614 94.112 L 125.614 94.802 Q 125.614 94.875 125.548 94.906 Q 125.483 94.937 125.33 94.937 Q 125.229 94.937 125.174 94.923 Q 125.119 94.909 125.098 94.881 Q 125.076 94.853 125.076 94.802 Q 125.076 94.711 125.032 94.634 Q 124.988 94.557 124.901 94.51 Q 124.814 94.464 124.692 94.464 Q 124.537 94.464 124.421 94.532 Q 124.305 94.6 124.242 94.725 Q 124.178 94.851 124.178 95.016 Q 124.178 95.182 124.242 95.308 Q 124.305 95.433 124.421 95.501 Q 124.537 95.569 124.692 95.569 Q 124.857 95.569 125.03 95.515 Q 125.203 95.461 125.366 95.367 Q 125.405 95.345 125.437 95.345 Q 125.534 95.345 125.607 95.515 Q 125.646 95.607 125.646 95.672 Q 125.646 95.768 125.553 95.82 Q 125.354 95.932 125.133 95.994 Q 124.913 96.056 124.692 96.056 Q 124.365 96.056 124.118 95.923 Q 123.871 95.79 123.737 95.554 Q 123.603 95.317 123.603 95.016 Q 123.603 94.716 123.738 94.478 Q 123.873 94.241 124.106 94.109 Q 124.34 93.977 124.627 93.977 Q 124.975 93.977 125.119 94.228 L 125.119 94.112 Q 125.119 94.039 125.182 94.008 Q 125.244 93.977 125.382 93.977 Z" transform="matrix(1, 0, 0, 1, 53.954517, 4.796103)" style="fill: rgb(51, 51, 51);"/>
  <path d="M 127.312 93.977 Q 127.639 93.977 127.868 94.117 Q 128.098 94.258 128.215 94.508 Q 128.333 94.759 128.333 95.081 Q 128.333 95.154 128.301 95.184 Q 128.27 95.214 128.197 95.214 L 126.818 95.214 Q 126.859 95.386 126.993 95.477 Q 127.127 95.569 127.333 95.569 Q 127.666 95.569 128.055 95.45 Q 128.081 95.442 128.107 95.442 Q 128.154 95.442 128.189 95.485 Q 128.223 95.528 128.251 95.631 Q 128.272 95.71 128.272 95.766 Q 128.272 95.822 128.248 95.853 Q 128.223 95.884 128.167 95.904 Q 127.952 95.975 127.729 96.015 Q 127.505 96.056 127.291 96.056 Q 126.964 96.056 126.728 95.923 Q 126.491 95.79 126.368 95.555 Q 126.244 95.319 126.244 95.016 Q 126.244 94.716 126.373 94.479 Q 126.502 94.243 126.745 94.11 Q 126.988 93.977 127.312 93.977 Z M 127.312 94.464 Q 126.919 94.464 126.826 94.795 L 127.772 94.795 Q 127.735 94.638 127.616 94.551 Q 127.497 94.464 127.312 94.464 Z" transform="matrix(1, 0, 0, 1, 53.954517, 4.796103)" style="fill: rgb(51, 51, 51);"/>
  <path d="M 130.679 93.977 Q 130.877 93.977 130.99 94.138 Q 131.104 94.299 131.104 94.628 L 131.104 95.874 Q 131.104 95.947 131.073 95.978 Q 131.042 96.009 130.969 96.009 L 130.703 96.009 Q 130.63 96.009 130.598 95.978 Q 130.567 95.947 130.567 95.874 L 130.567 94.75 Q 130.567 94.636 130.54 94.582 Q 130.514 94.529 130.456 94.529 Q 130.355 94.529 130.295 94.686 Q 130.236 94.842 130.236 95.143 L 130.236 95.874 Q 130.236 95.947 130.205 95.978 Q 130.174 96.009 130.101 96.009 L 129.835 96.009 Q 129.762 96.009 129.73 95.978 Q 129.699 95.947 129.699 95.874 L 129.699 94.75 Q 129.699 94.636 129.672 94.582 Q 129.646 94.529 129.588 94.529 Q 129.487 94.529 129.428 94.686 Q 129.368 94.842 129.368 95.143 L 129.368 95.874 Q 129.368 95.947 129.337 95.978 Q 129.306 96.009 129.233 96.009 L 128.967 96.009 Q 128.894 96.009 128.862 95.978 Q 128.831 95.947 128.831 95.874 L 128.831 94.464 L 128.709 94.464 Q 128.657 94.464 128.629 94.447 Q 128.601 94.43 128.587 94.383 Q 128.573 94.335 128.573 94.245 Q 128.573 94.155 128.587 94.108 Q 128.601 94.06 128.629 94.042 Q 128.657 94.024 128.709 94.024 L 129.083 94.024 Q 129.156 94.024 129.187 94.055 Q 129.218 94.086 129.218 94.159 L 129.218 94.469 Q 129.319 94.226 129.455 94.101 Q 129.592 93.977 129.755 93.977 Q 130.073 93.977 130.165 94.413 Q 130.264 94.198 130.395 94.087 Q 130.526 93.977 130.679 93.977 Z" transform="matrix(1, 0, 0, 1, 53.954517, 4.796103)" style="fill: rgb(51, 51, 51);"/>
  <path d="M 132.586 93.977 Q 132.912 93.977 133.142 94.117 Q 133.372 94.258 133.489 94.508 Q 133.606 94.759 133.606 95.081 Q 133.606 95.154 133.575 95.184 Q 133.544 95.214 133.471 95.214 L 132.092 95.214 Q 132.132 95.386 132.267 95.477 Q 132.401 95.569 132.607 95.569 Q 132.94 95.569 133.329 95.45 Q 133.355 95.442 133.381 95.442 Q 133.428 95.442 133.462 95.485 Q 133.497 95.528 133.525 95.631 Q 133.546 95.71 133.546 95.766 Q 133.546 95.822 133.521 95.853 Q 133.497 95.884 133.441 95.904 Q 133.226 95.975 133.003 96.015 Q 132.779 96.056 132.564 96.056 Q 132.238 96.056 132.001 95.923 Q 131.765 95.79 131.642 95.555 Q 131.518 95.319 131.518 95.016 Q 131.518 94.716 131.647 94.479 Q 131.776 94.243 132.019 94.11 Q 132.261 93.977 132.586 93.977 Z M 132.586 94.464 Q 132.193 94.464 132.1 94.795 L 133.046 94.795 Q 133.009 94.638 132.89 94.551 Q 132.771 94.464 132.586 94.464 Z" transform="matrix(1, 0, 0, 1, 53.954517, 4.796103)" style="fill: rgb(51, 51, 51);"/>
  <path d="M 135.496 93.977 Q 135.691 93.977 135.839 94.063 Q 135.986 94.148 136.065 94.306 Q 136.145 94.464 136.145 94.677 L 136.145 95.569 L 136.31 95.569 Q 136.362 95.569 136.39 95.587 Q 136.418 95.605 136.432 95.652 Q 136.446 95.7 136.446 95.79 Q 136.446 95.88 136.432 95.927 Q 136.418 95.975 136.39 95.992 Q 136.362 96.009 136.31 96.009 L 135.507 96.009 Q 135.455 96.009 135.427 95.992 Q 135.399 95.975 135.385 95.927 Q 135.371 95.88 135.371 95.79 Q 135.371 95.7 135.385 95.652 Q 135.399 95.605 135.427 95.587 Q 135.455 95.569 135.507 95.569 L 135.608 95.569 L 135.608 94.804 Q 135.608 94.636 135.55 94.55 Q 135.492 94.464 135.356 94.464 Q 135.232 94.464 135.12 94.568 Q 135.008 94.673 134.941 94.847 Q 134.873 95.021 134.873 95.218 L 134.873 95.569 L 134.974 95.569 Q 135.025 95.569 135.053 95.587 Q 135.081 95.605 135.095 95.652 Q 135.109 95.7 135.109 95.79 Q 135.109 95.88 135.095 95.927 Q 135.081 95.975 135.053 95.992 Q 135.025 96.009 134.974 96.009 L 134.17 96.009 Q 134.119 96.009 134.091 95.992 Q 134.063 95.975 134.049 95.927 Q 134.035 95.88 134.035 95.79 Q 134.035 95.7 134.049 95.652 Q 134.063 95.605 134.091 95.587 Q 134.119 95.569 134.17 95.569 L 134.336 95.569 L 134.336 94.464 L 134.127 94.464 Q 134.076 94.464 134.048 94.447 Q 134.02 94.43 134.006 94.383 Q 133.992 94.335 133.992 94.245 Q 133.992 94.155 134.006 94.108 Q 134.02 94.06 134.048 94.042 Q 134.076 94.024 134.127 94.024 L 134.652 94.024 Q 134.725 94.024 134.756 94.055 Q 134.787 94.086 134.787 94.159 L 134.787 94.471 Q 135.071 93.977 135.496 93.977 Z" transform="matrix(1, 0, 0, 1, 53.954517, 4.796103)" style="fill: rgb(51, 51, 51);"/>
  <path d="M 137.552 93.412 Q 137.653 93.412 137.708 93.426 Q 137.763 93.439 137.784 93.467 Q 137.806 93.495 137.806 93.547 L 137.806 94.153 L 138.603 94.153 Q 138.678 94.153 138.708 94.202 Q 138.738 94.252 138.738 94.385 Q 138.738 94.518 138.708 94.566 Q 138.678 94.615 138.603 94.615 L 137.806 94.615 L 137.806 95.212 Q 137.806 95.569 138.083 95.569 Q 138.182 95.569 138.314 95.525 Q 138.446 95.48 138.622 95.401 Q 138.67 95.382 138.697 95.382 Q 138.743 95.382 138.781 95.419 Q 138.82 95.457 138.854 95.543 Q 138.893 95.639 138.893 95.7 Q 138.893 95.747 138.87 95.778 Q 138.848 95.809 138.803 95.833 Q 138.36 96.056 138.036 96.056 Q 137.662 96.056 137.465 95.848 Q 137.269 95.639 137.269 95.24 L 137.269 94.615 L 136.854 94.615 Q 136.779 94.615 136.749 94.566 Q 136.719 94.518 136.719 94.385 Q 136.719 94.252 136.749 94.202 Q 136.779 94.153 136.854 94.153 L 137.269 94.153 L 137.269 93.547 Q 137.269 93.474 137.334 93.443 Q 137.4 93.412 137.552 93.412 Z" transform="matrix(1, 0, 0, 1, 53.954517, 4.796103)" style="fill: rgb(51, 51, 51);"/>
</svg>